<?xml version="1.0" encoding="UTF-8" standalone="no"?>
<svg
   viewBox="0 0 32 32"
   version="1.1"
   id="svg1"
   sodipodi:docname="other.svg"
   inkscape:version="1.3.2 (091e20ef0f, 2023-11-25)"
   xmlns:inkscape="http://www.inkscape.org/namespaces/inkscape"
   xmlns:sodipodi="http://sodipodi.sourceforge.net/DTD/sodipodi-0.dtd"
   xmlns="http://www.w3.org/2000/svg"
   xmlns:svg="http://www.w3.org/2000/svg">
  <defs
     id="defs1" />
  <sodipodi:namedview
     id="namedview1"
     pagecolor="#a0a0a0"
     bordercolor="#000000"
     borderopacity="0.25"
     inkscape:showpageshadow="2"
     inkscape:pageopacity="0.0"
     inkscape:pagecheckerboard="0"
     inkscape:deskcolor="#d1d1d1"
     inkscape:zoom="23.8125"
     inkscape:cx="16.020997"
     inkscape:cy="16"
     inkscape:window-width="1920"
     inkscape:window-height="994"
     inkscape:window-x="0"
     inkscape:window-y="0"
     inkscape:window-maximized="1"
     inkscape:current-layer="svg1"
     showgrid="true">
    <inkscape:grid
       id="grid1"
       units="px"
       originx="0"
       originy="0"
       spacingx="1"
       spacingy="1"
       empcolor="#0099e5"
       empopacity="0.30196078"
       color="#0099e5"
       opacity="0.14902"
       empspacing="5"
       dotted="false"
       gridanglex="30"
       gridanglez="30"
       visible="true" />
  </sodipodi:namedview>
  <style
     type="text/css"
     id="current-color-scheme">.ColorScheme-Text {color:#fcfcfc;}</style>
  <g
     class="ColorScheme-Text"
     fill="currentColor"
     id="g1">
    <path
       d="m 27.960938,15.960938 c 0,-1.499999 -1.494141,-1.5 -1.494141,-1.5 H 5.5351565 c 0,0 -1.49611,0.0228 -1.496094,1.5 1.5e-5,1.477199 1.496094,1.5 1.496094,1.5 H 26.466797 c 0,0 1.494141,-10e-7 1.494141,-1.5 z m -0.382813,3 H 26.253906 A 10.724531,10.724531 0 0 1 15.960938,26.685547 10.724531,10.724531 0 0 1 5.6679685,18.960938 h -1.302734 a 12,12 0 0 0 11.5957035,9 12,12 0 0 0 11.617187,-9 z m -0.01953,-5.990234 A 12,12 0 0 0 15.960938,3.9609375 12,12 0 0 0 4.3632815,12.970704 h 1.320312 A 10.724531,10.724531 0 0 1 15.960938,5.2363281 10.724531,10.724531 0 0 1 26.238281,12.970704 Z"
       id="path1"
       style="fill:#ffffff;fill-opacity:1" />
  </g>
  <path
     d="M 12.999923,10 H 11 v 0 2 h 1.999923 v 0 z"
     id="path2653-4-3"
     style="fill:#ffffff;fill-opacity:1;stroke-width:0.437426"
     sodipodi:nodetypes="ccccccc" />
  <path
     d="M 16.999986,10 H 15 v 0 2 h 1.999986 v 0 z"
     id="path2653-4-3-9"
     style="fill:#ffffff;fill-opacity:1;stroke-width:0.437426"
     sodipodi:nodetypes="ccccccc" />
  <path
     d="M 21.000002,10 H 19 v 0 2 h 2.000002 v 0 z"
     id="path2653-4-3-9-1"
     style="fill:#ffffff;fill-opacity:1;stroke-width:0.437426"
     sodipodi:nodetypes="ccccccc" />
  <ellipse
     style="fill:#fffbfe;fill-opacity:1;stroke-width:0.0905363"
     cx="-6.1558743"
     cy="-23.390207"
     id="circle3581_2_-2-36"
     transform="rotate(165.00001)"
     rx="0.99994564"
     ry="0.99994576" />
  <ellipse
     style="fill:#fffbfe;fill-opacity:1;stroke-width:0.0905363"
     cx="-13.883288"
     cy="-25.460747"
     id="circle3581_2_-2-36-6"
     transform="rotate(165.00001)"
     rx="0.99994564"
     ry="0.99994576" />
  <ellipse
     style="fill:#fffbfe;fill-opacity:1;stroke-width:0.0905363"
     cx="-10.019554"
     cy="-24.425573"
     id="circle3581_2_-2-36-56"
     transform="rotate(165.00001)"
     rx="0.99994564"
     ry="0.99994576" />
</svg>
