<?xml version="1.0" encoding="UTF-8" standalone="no"?>
<svg
   viewBox="0 0 32 32"
   version="1.1"
   id="svg1"
   sodipodi:docname="system-log-out.svg"
   inkscape:version="1.3.2 (091e20ef0f, 2023-11-25)"
   xmlns:inkscape="http://www.inkscape.org/namespaces/inkscape"
   xmlns:sodipodi="http://sodipodi.sourceforge.net/DTD/sodipodi-0.dtd"
   xmlns="http://www.w3.org/2000/svg"
   xmlns:svg="http://www.w3.org/2000/svg">
  <sodipodi:namedview
     id="namedview1"
     pagecolor="#a2a2a2"
     bordercolor="#000000"
     borderopacity="0.25"
     inkscape:showpageshadow="2"
     inkscape:pageopacity="0.0"
     inkscape:pagecheckerboard="0"
     inkscape:deskcolor="#d1d1d1"
     inkscape:zoom="23.8125"
     inkscape:cx="15.979003"
     inkscape:cy="16"
     inkscape:window-width="1920"
     inkscape:window-height="994"
     inkscape:window-x="0"
     inkscape:window-y="0"
     inkscape:window-maximized="1"
     inkscape:current-layer="svg1" />
  <defs
     id="defs3051">
    <style
       type="text/css"
       id="current-color-scheme">.ColorScheme-Text {color:#fcfcfc;}</style>
  </defs>
  <path
     style="fill:currentColor;fill-opacity:1;stroke:none"
     d="m 15.999966,28 c -6.999979,0 -12,-5.660767 -12,-12 0,-6.339234 5.39168,-12 12,-12 0,0 0.75,0.0038 0.75,0.751953 0,0.748135 -0.75,0.748047 -0.75,0.748047 -5.798984,0 -10.5,4.701016 -10.5,10.5 0,5.798984 4.701016,10.5 10.5,10.5 5.798984,0 10.5,-4.701016 10.5,-10.5 0,0 -0.01551,-0.75 0.742188,-0.75 0.757696,0 0.757812,0.75 0.757812,0.75 0,6.344706 -5.000021,12 -12,12 z m 5.185547,-11.322266 c -0.211672,-0.01025 -0.446862,-0.0992 -0.685547,-0.33789 -0.763791,-0.763792 -0.01367,-1.513672 -0.01367,-1.513672 L 24.999966,10.361328 20.4902,5.849609 c 0,0 -0.740235,-0.759766 0.0098,-1.509765 0.749999,-0.749999 1.5,0 1.5,0 l 6,6 -6,6 c 0,0 -0.348775,0.360453 -0.814453,0.33789 z"
     class="ColorScheme-Text"
     id="path1" />
</svg>
